<svg width="71" height="52" viewBox="0 0 71 52" fill="none" xmlns="http://www.w3.org/2000/svg">
<path d="M50.3866 21.8328C48.9979 19.931 47.6673 18.109 46.3359 16.2861C46.3476 16.2653 46.3592 16.2454 46.3708 16.2246C54.399 19.7956 62.428 23.3666 70.4802 26.9492C45.883 24.2897 22.7111 29.0363 0.75 39.9379C1.44644 39.0763 10.7652 33.8719 16.1971 31.3727C21.5866 28.8926 27.139 26.8454 32.846 25.2236C38.5646 23.5984 44.3746 22.4427 50.3866 21.8328Z" fill="url(#paint0_linear_455_1852)"/>
<path d="M46.5867 21.0262C42.5502 14.0637 38.5303 7.12857 34.4746 0.132812C28.7951 9.9302 23.148 19.6736 17.5 29.4161C18.1291 29.1594 18.7508 28.8827 19.3857 28.6418C22.0052 27.6497 24.6264 26.661 27.2543 25.6906C27.5693 25.5743 27.7696 25.4098 27.9358 25.1215C30.0666 21.4184 32.21 17.7219 34.3508 14.0238C34.3849 13.9648 34.4364 13.9158 34.4929 13.8452C34.7223 14.239 34.9359 14.6037 35.1478 14.9693C36.5049 17.3098 37.8637 19.6495 39.2142 21.9941C39.23 22.0216 39.2458 22.0481 39.2608 22.0756C39.3688 22.2625 39.4735 22.3032 39.6821 22.2625C41.0351 21.995 42.3889 21.7341 43.7461 21.4898C44.6744 21.3236 45.6077 21.1857 46.5867 21.0262Z" fill="#0E1111"/>
<path d="M57.2966 39.5386C55.0502 35.6602 52.8021 31.7826 50.5607 27.9009C50.4502 27.709 50.3297 27.6433 50.1111 27.6616C48.9019 27.763 47.6911 27.8361 46.4827 27.9474C45.3051 28.0554 44.1307 28.1967 42.9274 28.3263L42.875 28.3305L42.9855 28.5265L42.9847 28.5232C42.9872 28.529 42.9897 28.5348 42.993 28.5398C45.1388 32.2454 47.2863 35.9494 49.4272 39.6574C49.5385 39.851 49.6665 39.9042 49.8793 39.9034C52.3068 39.8959 54.7352 39.8992 57.1628 39.8976C57.2542 39.8976 57.3464 39.8809 57.4686 39.8693C57.398 39.7322 57.3514 39.6333 57.2966 39.5386Z" fill="#0E1111"/>
<path d="M14.179 35.4254C14.0494 35.4686 13.9247 35.6023 13.8516 35.7253C13.2349 36.7697 12.6308 37.8207 12.0241 38.8709C11.8379 39.1933 11.6567 39.5198 11.4531 39.8795C11.6077 39.887 11.7041 39.897 11.8013 39.897C14.1849 39.8995 16.5684 39.8945 18.9519 39.9095C19.2635 39.9111 19.4264 39.7981 19.5744 39.5397C20.5409 37.8498 21.5199 36.1673 22.4964 34.4832C22.9136 33.7628 23.3333 33.0425 23.7896 32.2573C23.6117 32.2889 23.5411 32.3113 23.4447 32.3379C20.3556 33.3632 17.2648 34.3885 14.179 35.4254Z" fill="#0E1111"/>
<path d="M6.67929 50.0445H2.95193L1.84577 51.7876H0.769531L5.33378 44.8135H6.32026L8.08462 51.7876H7.09814L6.67929 50.0445ZM6.47983 49.2477L5.65291 45.8105L3.46054 49.2477H6.47983Z" fill="#0E1111"/>
<path d="M17.1327 48.5702C16.7671 49.0289 16.2526 49.3438 15.5878 49.5166L16.8635 51.7881H15.8072L14.5913 49.6562H14.4018H12.5386L12.1197 51.7881H11.1133L12.5086 44.814H15.1099C15.9268 44.814 16.5601 44.9918 17.0081 45.3474C17.4569 45.703 17.6804 46.2056 17.6804 46.857C17.6804 47.5408 17.4984 48.1116 17.1327 48.5702ZM16.0964 48.331C16.4887 48.0119 16.684 47.5508 16.684 46.9459C16.684 46.5272 16.541 46.2123 16.2551 45.9996C15.9692 45.7869 15.5579 45.6805 15.0193 45.6805H13.3347L12.7064 48.8087H14.4309C15.1498 48.8087 15.7041 48.65 16.0964 48.331Z" fill="#0E1111"/>
<path d="M26.4799 48.7098C26.6527 48.9491 26.7392 49.2482 26.7392 49.6063C26.7392 50.31 26.4683 50.8501 25.9272 51.2256C25.3854 51.6012 24.6465 51.7881 23.7099 51.7881H20.3516L21.7469 44.814H24.836C25.5399 44.814 26.0835 44.9452 26.4658 45.2078C26.848 45.4703 27.0392 45.8509 27.0392 46.3485C27.0392 46.8005 26.9212 47.1836 26.6852 47.4993C26.4491 47.815 26.1383 48.046 25.7535 48.1914C26.0643 48.2977 26.307 48.4705 26.4799 48.7098ZM25.2391 50.6274C25.5815 50.3915 25.7527 50.0541 25.7527 49.6163C25.7527 49.2715 25.6314 49.0255 25.3887 48.8793C25.146 48.7331 24.782 48.66 24.2975 48.66H21.9655L21.5068 50.9814H23.7789C24.4105 50.9814 24.8967 50.8634 25.2391 50.6274ZM22.573 45.6207L22.1242 47.8524H24.167C24.7313 47.8524 25.1784 47.7377 25.5075 47.5084C25.8366 47.2791 26.0012 46.9459 26.0012 46.5072C26.0012 46.2081 25.8832 45.9855 25.6472 45.8401C25.4111 45.6938 25.0704 45.6207 24.6258 45.6207H22.573Z" fill="#0E1111"/>
<path d="M31.2899 44.814H32.2864L30.891 51.7881H29.8945L31.2899 44.814Z" fill="#0E1111"/>
<path d="M37.5694 45.6805H35.1875L35.357 44.814H41.1272L40.9477 45.6805H38.5658L37.34 51.7881H36.3535L37.5694 45.6805Z" fill="#0E1111"/>
<path d="M48.8359 48.5702C48.4702 49.0289 47.9558 49.3438 47.2909 49.5166L48.5666 51.7881H47.5103L46.2944 49.6562H46.105H44.2417L43.8228 51.7881H42.8164L44.2118 44.814H46.813C47.63 44.814 48.2632 44.9918 48.7112 45.3474C49.16 45.703 49.3835 46.2056 49.3835 46.857C49.3835 47.5408 49.2015 48.1116 48.8359 48.5702ZM47.7995 48.331C48.1918 48.0119 48.3871 47.5508 48.3871 46.9459C48.3871 46.5272 48.2441 46.2123 47.9582 45.9996C47.6724 45.7869 47.261 45.6805 46.7224 45.6805H45.0379L44.4096 48.8087H46.134C46.8529 48.8087 47.4072 48.65 47.7995 48.331Z" fill="#0E1111"/>
<path d="M53.2157 51.2501C52.7537 50.838 52.5234 50.2672 52.5234 49.536C52.5234 49.3167 52.55 49.0641 52.6032 48.7791L53.3902 44.8135H54.3867L53.5897 48.7692C53.5432 48.9951 53.5199 49.2145 53.5199 49.4272C53.5199 49.939 53.6662 50.3253 53.9587 50.5879C54.2512 50.8504 54.6759 50.9817 55.2344 50.9817C55.8585 50.9817 56.3588 50.8022 56.7345 50.4433C57.1101 50.0844 57.3736 49.5236 57.5265 48.7592L58.3135 44.8135H59.29L58.493 48.829C58.2869 49.8385 57.903 50.5979 57.342 51.1055C56.7802 51.614 56.048 51.8674 55.1446 51.8674C54.3202 51.8682 53.6778 51.6622 53.2157 51.2501Z" fill="#0E1111"/>
<path d="M70.7459 44.814L69.3506 51.7881H68.394L69.4104 46.7465L66.1119 50.9407H65.6531L63.9087 46.6468L62.8823 51.7881H61.9258L63.3212 44.814H64.1281L66.0712 49.726L69.8883 44.814H70.7459Z" fill="#0E1111"/>
<defs>
<linearGradient id="paint0_linear_455_1852" x1="0.751396" y1="28.0814" x2="70.4814" y2="28.0814" gradientUnits="userSpaceOnUse">
<stop stop-color="#FF8B2F"/>
<stop offset="1" stop-color="#FFBD3E"/>
</linearGradient>
</defs>
</svg>
