<svg width="71" height="53" viewBox="0 0 71 53" fill="none" xmlns="http://www.w3.org/2000/svg">
<path d="M50.246 22.3328C48.8572 20.431 47.5267 18.609 46.1953 16.7861C46.207 16.7653 46.2186 16.7454 46.2302 16.7246C54.2584 20.2956 62.2874 23.8666 70.3396 27.4492C45.7424 24.7897 22.5704 29.5363 0.609375 40.4379C1.30581 39.5763 10.6246 34.3719 16.0565 31.8727C21.446 29.3926 26.9984 27.3454 32.7054 25.7236C38.424 24.0984 44.234 22.9427 50.246 22.3328Z" fill="url(#paint0_linear_460_1004)"/>
<path d="M46.4461 21.5262C42.4095 14.5637 38.3896 7.62857 34.334 0.632812C28.6545 10.4302 23.0073 20.1736 17.3594 29.9161C17.9885 29.6594 18.6101 29.3827 19.2451 29.1418C21.8646 28.1497 24.4858 27.161 27.1137 26.1906C27.4286 26.0743 27.6289 25.9098 27.7951 25.6215C29.926 21.9184 32.0693 18.2219 34.2102 14.5238C34.2443 14.4648 34.2958 14.4158 34.3523 14.3452C34.5817 14.739 34.7953 15.1037 35.0072 15.4693C36.3643 17.8098 37.7231 20.1495 39.0736 22.4941C39.0894 22.5216 39.1052 22.5481 39.1202 22.5756C39.2282 22.7625 39.3329 22.8032 39.5415 22.7625C40.8945 22.495 42.2483 22.2341 43.6055 21.9898C44.5338 21.8236 45.4671 21.6857 46.4461 21.5262Z" fill="white"/>
<path d="M57.156 40.0386C54.9096 36.1602 52.6615 32.2826 50.4201 28.4009C50.3096 28.209 50.1891 28.1433 49.9705 28.1616C48.7613 28.263 47.5504 28.3361 46.3421 28.4474C45.1644 28.5554 43.9901 28.6967 42.7867 28.8263L42.7344 28.8305L42.8449 29.0265L42.8441 29.0232C42.8466 29.029 42.8491 29.0348 42.8524 29.0398C44.9982 32.7454 47.1457 36.4494 49.2865 40.1574C49.3979 40.351 49.5259 40.4042 49.7386 40.4034C52.1662 40.3959 54.5946 40.3992 57.0222 40.3976C57.1136 40.3976 57.2058 40.3809 57.328 40.3693C57.2573 40.2322 57.2108 40.1333 57.156 40.0386Z" fill="white"/>
<path d="M14.0384 35.9254C13.9088 35.9686 13.7841 36.1023 13.711 36.2253C13.0943 37.2697 12.4901 38.3207 11.8834 39.3709C11.6973 39.6933 11.5161 40.0198 11.3125 40.3795C11.4671 40.387 11.5635 40.397 11.6607 40.397C14.0442 40.3995 16.4277 40.3945 18.8113 40.4095C19.1229 40.4111 19.2858 40.2981 19.4337 40.0397C20.4003 38.3498 21.3793 36.6673 22.3558 34.9832C22.773 34.2628 23.1927 33.5425 23.6489 32.7573C23.4711 32.7889 23.4004 32.8113 23.304 32.8379C20.2149 33.8632 17.1242 34.8885 14.0384 35.9254Z" fill="white"/>
<path d="M6.53866 50.5445H2.8113L1.70515 52.2876H0.628906L5.19315 45.3135H6.17964L7.944 52.2876H6.95752L6.53866 50.5445ZM6.3392 49.7477L5.51228 46.3105L3.31992 49.7477H6.3392Z" fill="white"/>
<path d="M16.9921 49.0702C16.6264 49.5289 16.112 49.8438 15.4471 50.0166L16.7228 52.2881H15.6665L14.4507 50.1562H14.2612H12.3979L11.9791 52.2881H10.9727L12.368 45.314H14.9693C15.7862 45.314 16.4195 45.4918 16.8674 45.8474C17.3162 46.203 17.5398 46.7056 17.5398 47.357C17.5398 48.0408 17.3578 48.6116 16.9921 49.0702ZM15.9558 48.831C16.348 48.5119 16.5433 48.0508 16.5433 47.4459C16.5433 47.0272 16.4004 46.7123 16.1145 46.4996C15.8286 46.2869 15.4172 46.1805 14.8787 46.1805H13.1941L12.5658 49.3087H14.2903C15.0092 49.3087 15.5635 49.15 15.9558 48.831Z" fill="white"/>
<path d="M26.3393 49.2098C26.5121 49.4491 26.5986 49.7482 26.5986 50.1063C26.5986 50.81 26.3276 51.3501 25.7866 51.7256C25.2447 52.1012 24.5059 52.2881 23.5693 52.2881H20.2109L21.6063 45.314H24.6954C25.3993 45.314 25.9428 45.4452 26.3251 45.7078C26.7074 45.9703 26.8986 46.3509 26.8986 46.8485C26.8986 47.3005 26.7806 47.6836 26.5445 47.9993C26.3085 48.315 25.9977 48.546 25.6129 48.6914C25.9237 48.7977 26.1664 48.9705 26.3393 49.2098ZM25.0985 51.1274C25.4409 50.8915 25.6121 50.5541 25.6121 50.1163C25.6121 49.7715 25.4907 49.5255 25.2481 49.3793C25.0054 49.2331 24.6414 49.16 24.1569 49.16H21.8249L21.3661 51.4814H23.6383C24.2699 51.4814 24.7561 51.3634 25.0985 51.1274ZM22.4324 46.1207L21.9836 48.3524H24.0264C24.5907 48.3524 25.0378 48.2377 25.3669 48.0084C25.696 47.7791 25.8606 47.4459 25.8606 47.0072C25.8606 46.7081 25.7426 46.4855 25.5065 46.3401C25.2705 46.1938 24.9298 46.1207 24.4851 46.1207H22.4324Z" fill="white"/>
<path d="M31.1493 45.314H32.1457L30.7504 52.2881H29.7539L31.1493 45.314Z" fill="white"/>
<path d="M37.4287 46.1805H35.0469L35.2164 45.314H40.9865L40.807 46.1805H38.4252L37.1994 52.2881H36.2129L37.4287 46.1805Z" fill="white"/>
<path d="M48.6952 49.0702C48.3296 49.5289 47.8151 49.8438 47.1503 50.0166L48.426 52.2881H47.3697L46.1538 50.1562H45.9643H44.1011L43.6822 52.2881H42.6758L44.0712 45.314H46.6724C47.4893 45.314 48.1226 45.4918 48.5706 45.8474C49.0193 46.203 49.2429 46.7056 49.2429 47.357C49.2429 48.0408 49.0609 48.6116 48.6952 49.0702ZM47.6589 48.831C48.0511 48.5119 48.2465 48.0508 48.2465 47.4459C48.2465 47.0272 48.1035 46.7123 47.8176 46.4996C47.5317 46.2869 47.1204 46.1805 46.5818 46.1805H44.8972L44.2689 49.3087H45.9934C46.7123 49.3087 47.2666 49.15 47.6589 48.831Z" fill="white"/>
<path d="M53.0751 51.7501C52.613 51.338 52.3828 50.7672 52.3828 50.036C52.3828 49.8167 52.4094 49.5641 52.4626 49.2791L53.2496 45.3135H54.2461L53.4491 49.2692C53.4025 49.4951 53.3793 49.7145 53.3793 49.9272C53.3793 50.439 53.5255 50.8253 53.8181 51.0879C54.1106 51.3504 54.5353 51.4817 55.0938 51.4817C55.7179 51.4817 56.2182 51.3022 56.5939 50.9433C56.9695 50.5844 57.233 50.0236 57.3859 49.2592L58.1729 45.3135H59.1494L58.3524 49.329C58.1463 50.3385 57.7623 51.0979 57.2014 51.6055C56.6396 52.114 55.9074 52.3674 55.004 52.3674C54.1796 52.3682 53.5372 52.1622 53.0751 51.7501Z" fill="white"/>
<path d="M70.6053 45.314L69.2099 52.2881H68.2534L69.2698 47.2465L65.9713 51.4407H65.5125L63.7681 47.1468L62.7417 52.2881H61.7852L63.1805 45.314H63.9875L65.9305 50.226L69.7476 45.314H70.6053Z" fill="white"/>
<defs>
<linearGradient id="paint0_linear_460_1004" x1="0.610771" y1="28.5814" x2="70.3408" y2="28.5814" gradientUnits="userSpaceOnUse">
<stop stop-color="#FF8B2F"/>
<stop offset="1" stop-color="#FFBD3E"/>
</linearGradient>
</defs>
</svg>
