<svg width="183" height="19" viewBox="0 0 183 19" fill="none" xmlns="http://www.w3.org/2000/svg">
<path d="M15.59 14.0954H5.88531L3.00527 18.6338H0.203125L12.0868 0.475586H14.6553L19.2491 18.6338H16.6806L15.59 14.0954ZM15.0707 12.0208L12.9177 3.07148L7.20957 12.0208H15.0707Z" fill="white"/>
<path d="M41.9225 10.2556C40.9705 11.4497 39.631 12.2696 37.9 12.7195L41.2215 18.6338H38.4712L35.3056 13.083H34.8122H29.9609L28.8704 18.6338H26.25L29.883 0.475586H36.6558C38.7828 0.475586 40.4317 0.938516 41.598 1.86438C42.7664 2.79025 43.3485 4.09902 43.3485 5.79501C43.3485 7.57535 42.8746 9.0615 41.9225 10.2556ZM39.2243 9.6326C40.2456 8.80191 40.7541 7.6013 40.7541 6.02646C40.7541 4.93619 40.3819 4.11633 39.6375 3.56254C38.8932 3.00875 37.8221 2.73185 36.4199 2.73185H32.0339L30.398 10.8765H34.888C36.7597 10.8765 38.2029 10.4633 39.2243 9.6326Z" fill="white"/>
<path d="M66.3037 10.619C66.7537 11.242 66.9788 12.0208 66.9788 12.9532C66.9788 14.7854 66.2734 16.1915 64.8647 17.1693C63.4539 18.1471 61.5303 18.6338 59.0917 18.6338H50.3477L53.9807 0.475586H62.0236C63.8564 0.475586 65.2715 0.817376 66.2669 1.50096C67.2622 2.18455 67.7599 3.17531 67.7599 4.47109C67.7599 5.64789 67.4526 6.64516 66.8381 7.46719C66.2236 8.28922 65.4143 8.8906 64.4125 9.26917C65.2217 9.54607 65.8536 9.99602 66.3037 10.619ZM63.0731 15.6118C63.9646 14.9974 64.4103 14.1192 64.4103 12.9791C64.4103 12.0814 64.0944 11.4411 63.4626 11.0603C62.8307 10.6796 61.883 10.4892 60.6215 10.4892H54.5498L53.3554 16.5333H59.2712C60.9157 16.5333 62.1816 16.2261 63.0731 15.6118ZM56.1315 2.5761L54.9631 8.38657H60.2818C61.751 8.38657 62.9151 8.08804 63.772 7.49098C64.6289 6.89393 65.0573 6.02647 65.0573 4.88428C65.0573 4.10551 64.75 3.52575 64.1355 3.14719C63.521 2.76645 62.6338 2.5761 61.4762 2.5761H56.1315Z" fill="white"/>
<path d="M78.3948 0.475586H80.9892L77.3561 18.6338H74.7617L78.3948 0.475586Z" fill="white"/>
<path d="M94.1898 2.73185H87.9883L88.4297 0.475586H103.453L102.986 2.73185H96.7842L93.5926 18.6338H91.0241L94.1898 2.73185Z" fill="white"/>
<path d="M126.126 10.2556C125.174 11.4497 123.834 12.2696 122.103 12.7195L125.425 18.6338H122.674L119.509 13.083H119.015H114.164L113.074 18.6338H110.453L114.086 0.475586H120.859C122.986 0.475586 124.635 0.938516 125.801 1.86438C126.97 2.79025 127.552 4.09902 127.552 5.79501C127.552 7.57535 127.078 9.0615 126.126 10.2556ZM123.427 9.6326C124.449 8.80191 124.957 7.6013 124.957 6.02646C124.957 4.93619 124.585 4.11633 123.841 3.56254C123.096 3.00875 122.025 2.73185 120.623 2.73185H116.237L114.601 10.8765H119.091C120.963 10.8765 122.406 10.4633 123.427 9.6326Z" fill="white"/>
<path d="M136.353 17.2342C135.15 16.1613 134.551 14.6751 134.551 12.7715C134.551 12.2004 134.62 11.5427 134.759 10.8007L136.808 0.475586H139.402L137.327 10.7748C137.206 11.3632 137.145 11.9343 137.145 12.4881C137.145 13.8206 137.526 14.8265 138.288 15.5101C139.049 16.1937 140.155 16.5355 141.609 16.5355C143.234 16.5355 144.537 16.0682 145.515 15.1337C146.493 14.1992 147.179 12.739 147.577 10.7488L149.626 0.475586H152.169L150.094 10.9305C149.557 13.5589 148.557 15.5361 147.097 16.8578C145.634 18.1817 143.728 18.8415 141.375 18.8415C139.229 18.8437 137.556 18.3072 136.353 17.2342Z" fill="white"/>
<path d="M182.133 0.475586L178.5 18.6338H176.009L178.655 5.50729L170.067 16.4273H168.873L164.331 5.2477L161.659 18.6338H159.168L162.801 0.475586H164.902L169.961 13.2647L179.9 0.475586H182.133Z" fill="white"/>
</svg>
